<?xml version="1.0" encoding="UTF-8" standalone="no"?>
<!DOCTYPE svg PUBLIC "-//W3C//DTD SVG 1.1//EN"
 "http://www.w3.org/Graphics/SVG/1.1/DTD/svg11.dtd">
<!-- Generated by graphviz version 2.43.0 (0)
 -->
<!-- Title: %3 Pages: 1 -->
<svg width="616pt" height="764pt"
 viewBox="0.00 0.00 615.50 764.00" xmlns="http://www.w3.org/2000/svg" xmlns:xlink="http://www.w3.org/1999/xlink">
<g id="graph0" class="graph" transform="scale(1 1) rotate(0) translate(4 760)">
<title>%3</title>
<polygon fill="white" stroke="transparent" points="-4,4 -4,-760 611.5,-760 611.5,4 -4,4"/>
<!-- &#45;4424254953806941545 -->
<g id="node1" class="node">
<title>&#45;4424254953806941545</title>
<polygon fill="none" stroke="black" points="229,-756 46,-756 46,-720 229,-720 229,-756"/>
<text text-anchor="middle" x="137.5" y="-733" font-family="Helvetica,sans-Serif" font-size="20.00">Mean(Projection)</text>
</g>
<!-- &#45;8469807341016830452 -->
<g id="node2" class="node">
<title>&#45;8469807341016830452</title>
<polygon fill="none" stroke="black" points="275,-684 0,-684 0,-648 275,-648 275,-684"/>
<text text-anchor="middle" x="137.5" y="-661" font-family="Helvetica,sans-Serif" font-size="20.00">Projection(Filter, ArrDelay)</text>
</g>
<!-- &#45;8469807341016830452&#45;&gt;&#45;4424254953806941545 -->
<g id="edge1" class="edge">
<title>&#45;8469807341016830452&#45;&gt;&#45;4424254953806941545</title>
<path fill="none" stroke="black" d="M137.5,-684.3C137.5,-692.02 137.5,-701.29 137.5,-709.89"/>
<polygon fill="black" stroke="black" points="134,-709.9 137.5,-719.9 141,-709.9 134,-709.9"/>
</g>
<!-- &#45;4635492062295673036 -->
<g id="node3" class="node">
<title>&#45;4635492062295673036</title>
<polygon fill="none" stroke="black" points="251.5,-612 23.5,-612 23.5,-576 251.5,-576 251.5,-612"/>
<text text-anchor="middle" x="137.5" y="-589" font-family="Helvetica,sans-Serif" font-size="20.00">Filter(Repartition, EQ)</text>
</g>
<!-- &#45;4635492062295673036&#45;&gt;&#45;8469807341016830452 -->
<g id="edge2" class="edge">
<title>&#45;4635492062295673036&#45;&gt;&#45;8469807341016830452</title>
<path fill="none" stroke="black" d="M137.5,-612.3C137.5,-620.02 137.5,-629.29 137.5,-637.89"/>
<polygon fill="black" stroke="black" points="134,-637.9 137.5,-647.9 141,-637.9 134,-637.9"/>
</g>
<!-- 5362921569384276282 -->
<g id="node4" class="node">
<title>5362921569384276282</title>
<polygon fill="none" stroke="black" points="347.5,-540 149.5,-540 149.5,-504 347.5,-504 347.5,-540"/>
<text text-anchor="middle" x="248.5" y="-517" font-family="Helvetica,sans-Serif" font-size="20.00">EQ(Projection, UA)</text>
</g>
<!-- 5362921569384276282&#45;&gt;&#45;4635492062295673036 -->
<g id="edge3" class="edge">
<title>5362921569384276282&#45;&gt;&#45;4635492062295673036</title>
<path fill="none" stroke="black" d="M221.35,-540.12C206.97,-549.19 189.12,-560.45 173.59,-570.24"/>
<polygon fill="black" stroke="black" points="171.35,-567.52 164.76,-575.81 175.08,-573.44 171.35,-567.52"/>
</g>
<!-- 6315872881111814958 -->
<g id="node5" class="node">
<title>6315872881111814958</title>
<polygon fill="none" stroke="black" points="490,-468 103,-468 103,-432 490,-432 490,-468"/>
<text text-anchor="middle" x="296.5" y="-445" font-family="Helvetica,sans-Serif" font-size="20.00">Projection(Repartition, UniqueCarrier)</text>
</g>
<!-- 6315872881111814958&#45;&gt;5362921569384276282 -->
<g id="edge5" class="edge">
<title>6315872881111814958&#45;&gt;5362921569384276282</title>
<path fill="none" stroke="black" d="M284.63,-468.3C279,-476.53 272.15,-486.52 265.93,-495.58"/>
<polygon fill="black" stroke="black" points="263,-493.67 260.23,-503.9 268.77,-497.63 263,-493.67"/>
</g>
<!-- &#45;8382444945558982825 -->
<g id="node6" class="node">
<title>&#45;8382444945558982825</title>
<polygon fill="none" stroke="black" points="288,-396 83,-396 83,-360 288,-360 288,-396"/>
<text text-anchor="middle" x="185.5" y="-373" font-family="Helvetica,sans-Serif" font-size="20.00">Repartition(Assign)</text>
</g>
<!-- &#45;8382444945558982825&#45;&gt;&#45;4635492062295673036 -->
<g id="edge4" class="edge">
<title>&#45;8382444945558982825&#45;&gt;&#45;4635492062295673036</title>
<path fill="none" stroke="black" d="M135.41,-396.03C119.1,-404.23 102.82,-415.88 93.5,-432 68.32,-475.57 97.55,-534.12 118.96,-567.27"/>
<polygon fill="black" stroke="black" points="116.27,-569.55 124.74,-575.92 122.09,-565.66 116.27,-569.55"/>
</g>
<!-- &#45;8382444945558982825&#45;&gt;6315872881111814958 -->
<g id="edge6" class="edge">
<title>&#45;8382444945558982825&#45;&gt;6315872881111814958</title>
<path fill="none" stroke="black" d="M212.65,-396.12C227.03,-405.19 244.88,-416.45 260.41,-426.24"/>
<polygon fill="black" stroke="black" points="258.92,-429.44 269.24,-431.81 262.65,-423.52 258.92,-429.44"/>
</g>
<!-- 8358154553235496213 -->
<g id="node7" class="node">
<title>8358154553235496213</title>
<polygon fill="none" stroke="black" points="371,-324 0,-324 0,-288 371,-288 371,-324"/>
<text text-anchor="middle" x="185.5" y="-301" font-family="Helvetica,sans-Serif" font-size="20.00">Assign(ReadCSV, Date, ToDatetime)</text>
</g>
<!-- 8358154553235496213&#45;&gt;&#45;8382444945558982825 -->
<g id="edge7" class="edge">
<title>8358154553235496213&#45;&gt;&#45;8382444945558982825</title>
<path fill="none" stroke="black" d="M185.5,-324.3C185.5,-332.02 185.5,-341.29 185.5,-349.89"/>
<polygon fill="black" stroke="black" points="182,-349.9 185.5,-359.9 189,-349.9 182,-349.9"/>
</g>
<!-- &#45;2475024102997593425 -->
<g id="node8" class="node">
<title>&#45;2475024102997593425</title>
<polygon fill="none" stroke="black" points="413.5,-252 171.5,-252 171.5,-216 413.5,-216 413.5,-252"/>
<text text-anchor="middle" x="292.5" y="-229" font-family="Helvetica,sans-Serif" font-size="20.00">ToDatetime(Projection)</text>
</g>
<!-- &#45;2475024102997593425&#45;&gt;8358154553235496213 -->
<g id="edge9" class="edge">
<title>&#45;2475024102997593425&#45;&gt;8358154553235496213</title>
<path fill="none" stroke="black" d="M266.32,-252.12C252.46,-261.19 235.26,-272.45 220.29,-282.24"/>
<polygon fill="black" stroke="black" points="218.23,-279.41 211.78,-287.81 222.06,-285.26 218.23,-279.41"/>
</g>
<!-- 5071130464237878895 -->
<g id="node9" class="node">
<title>5071130464237878895</title>
<polygon fill="none" stroke="black" points="607.5,-180 107.5,-180 107.5,-144 607.5,-144 607.5,-180"/>
<text text-anchor="middle" x="357.5" y="-157" font-family="Helvetica,sans-Serif" font-size="20.00">Projection(RenameFrame, [&#39;year&#39;, &#39;month&#39;, &#39;day&#39;])</text>
</g>
<!-- 5071130464237878895&#45;&gt;&#45;2475024102997593425 -->
<g id="edge10" class="edge">
<title>5071130464237878895&#45;&gt;&#45;2475024102997593425</title>
<path fill="none" stroke="black" d="M341.43,-180.3C333.56,-188.78 323.94,-199.14 315.33,-208.42"/>
<polygon fill="black" stroke="black" points="312.62,-206.19 308.38,-215.9 317.75,-210.95 312.62,-206.19"/>
</g>
<!-- &#45;4584370755152389727 -->
<g id="node10" class="node">
<title>&#45;4584370755152389727</title>
<polygon fill="none" stroke="black" points="430.5,-108 166.5,-108 166.5,-72 430.5,-72 430.5,-108"/>
<text text-anchor="middle" x="298.5" y="-85" font-family="Helvetica,sans-Serif" font-size="20.00">RenameFrame(ReadCSV)</text>
</g>
<!-- &#45;4584370755152389727&#45;&gt;5071130464237878895 -->
<g id="edge11" class="edge">
<title>&#45;4584370755152389727&#45;&gt;5071130464237878895</title>
<path fill="none" stroke="black" d="M313.08,-108.3C320.16,-116.7 328.78,-126.93 336.55,-136.14"/>
<polygon fill="black" stroke="black" points="333.96,-138.51 343.08,-143.9 339.31,-133.99 333.96,-138.51"/>
</g>
<!-- 3584746476480820621 -->
<g id="node11" class="node">
<title>3584746476480820621</title>
<polygon fill="none" stroke="black" points="213,-36 106,-36 106,0 213,0 213,-36"/>
<text text-anchor="middle" x="159.5" y="-13" font-family="Helvetica,sans-Serif" font-size="20.00">ReadCSV</text>
</g>
<!-- 3584746476480820621&#45;&gt;8358154553235496213 -->
<g id="edge8" class="edge">
<title>3584746476480820621&#45;&gt;8358154553235496213</title>
<path fill="none" stroke="black" d="M144.95,-36.16C122.03,-65.34 81.77,-126.67 98.5,-180 110.8,-219.21 140.24,-256.89 161.46,-280.44"/>
<polygon fill="black" stroke="black" points="158.96,-282.89 168.31,-287.86 164.11,-278.14 158.96,-282.89"/>
</g>
<!-- 3584746476480820621&#45;&gt;&#45;4584370755152389727 -->
<g id="edge12" class="edge">
<title>3584746476480820621&#45;&gt;&#45;4584370755152389727</title>
<path fill="none" stroke="black" d="M193.5,-36.12C212.1,-45.49 235.33,-57.19 255.21,-67.2"/>
<polygon fill="black" stroke="black" points="253.86,-70.44 264.37,-71.81 257.01,-64.19 253.86,-70.44"/>
</g>
</g>
</svg>
